<svg width="75" height="75" viewBox="0 0 75 75" fill="none" xmlns="http://www.w3.org/2000/svg">
<path d="M32.0094 50.9812L18.75 37.7187L23.1688 33.3L32.0094 42.1375L49.6844 24.4594L54.1062 28.8812L32.0094 50.9812Z" fill="#BBC274"/>
<path fill-rule="evenodd" clip-rule="evenodd" d="M3.125 37.5C3.125 18.5156 18.5156 3.125 37.5 3.125C56.4844 3.125 71.875 18.5156 71.875 37.5C71.875 56.4844 56.4844 71.875 37.5 71.875C18.5156 71.875 3.125 56.4844 3.125 37.5ZM37.5 65.625C33.8066 65.625 30.1493 64.8975 26.737 63.4841C23.3247 62.0707 20.2243 59.999 17.6126 57.3874C15.001 54.7757 12.9293 51.6753 11.5159 48.263C10.1025 44.8507 9.375 41.1934 9.375 37.5C9.375 33.8066 10.1025 30.1493 11.5159 26.737C12.9293 23.3247 15.001 20.2243 17.6126 17.6126C20.2243 15.001 23.3247 12.9293 26.737 11.5159C30.1493 10.1025 33.8066 9.375 37.5 9.375C44.9592 9.375 52.1129 12.3382 57.3874 17.6126C62.6618 22.8871 65.625 30.0408 65.625 37.5C65.625 44.9592 62.6618 52.1129 57.3874 57.3874C52.1129 62.6618 44.9592 65.625 37.5 65.625Z" fill="#BBC274"/>
</svg>
