<svg width="76" height="76" viewBox="0 0 76 76" fill="none" xmlns="http://www.w3.org/2000/svg">
<path d="M38 38C34.5167 38 31.5347 36.7597 29.0542 34.2791C26.5736 31.7986 25.3334 28.8166 25.3334 25.3333C25.3334 21.85 26.5736 18.868 29.0542 16.3875C31.5347 13.9069 34.5167 12.6666 38 12.6666C41.4834 12.6666 44.4653 13.9069 46.9459 16.3875C49.4264 18.868 50.6667 21.85 50.6667 25.3333C50.6667 28.8166 49.4264 31.7986 46.9459 34.2791C44.4653 36.7597 41.4834 38 38 38ZM12.6667 63.3333V54.4666C12.6667 52.6722 13.129 51.0234 14.0537 49.5203C14.9784 48.0172 16.2049 46.8687 17.7334 46.075C21.0056 44.4388 24.3306 43.2123 27.7084 42.3953C31.0861 41.5783 34.5167 41.1687 38 41.1666C41.4834 41.1645 44.9139 41.5741 48.2917 42.3953C51.6695 43.2165 54.9945 44.4431 58.2667 46.075C59.7972 46.8666 61.0249 48.0151 61.9495 49.5203C62.8742 51.0255 63.3355 52.6743 63.3334 54.4666V63.3333H12.6667ZM19 57H57V54.4666C57 53.8861 56.8554 53.3583 56.5662 52.8833C56.277 52.4083 55.8938 52.0389 55.4167 51.775C52.5667 50.35 49.6903 49.2817 46.7875 48.5703C43.8847 47.8589 40.9556 47.5021 38 47.5C35.0445 47.4978 32.1153 47.8546 29.2125 48.5703C26.3097 49.286 23.4334 50.3542 20.5834 51.775C20.1084 52.0389 19.7252 52.4083 19.4339 52.8833C19.1425 53.3583 18.9979 53.8861 19 54.4666V57ZM38 31.6666C39.7417 31.6666 41.2332 31.047 42.4745 29.8078C43.7159 28.5686 44.3355 27.0771 44.3334 25.3333C44.3312 23.5895 43.7116 22.0991 42.4745 20.862C41.2374 19.6248 39.7459 19.0042 38 19C36.2541 18.9957 34.7637 19.6164 33.5287 20.862C32.2937 22.1075 31.673 23.598 31.6667 25.3333C31.6604 27.0686 32.281 28.5601 33.5287 29.8078C34.7764 31.0555 36.2668 31.6751 38 31.6666Z" fill="#BBC274"/>
</svg>
