<svg width="70" height="69" viewBox="0 0 70 69" fill="none" xmlns="http://www.w3.org/2000/svg">
<path d="M20.8498 31.072C18.3229 28.5811 13.9995 30.3459 13.9995 33.8663V50.5535C13.9995 51.7724 14.4911 52.9413 15.3662 53.8032C16.2414 54.6651 17.4283 55.1493 18.6659 55.1493H35.6099C39.1844 55.1493 40.9763 50.8913 38.4471 48.4027L20.8498 31.072ZM34.0326 50.5535H18.6659V35.4196L34.0326 50.5535Z" fill="#BBC274"/>
<path d="M7.28203 2.11127e-08C6.32574 2.11127e-08 5.37882 0.185501 4.49532 0.545913C3.61182 0.906325 2.80906 1.43459 2.13286 2.10054C0.767212 3.4455 0 5.26965 0 7.1717V61.2777C0 63.3089 0.819326 65.257 2.27774 66.6933C3.73615 68.1296 5.71418 68.9365 7.77668 68.9365H62.7174C64.1577 68.9367 65.5658 68.5161 66.7634 67.7281C67.961 66.94 68.8944 65.8199 69.4456 64.5094C69.9969 63.1989 70.1411 61.7568 69.86 60.3656C69.579 58.9743 68.8854 57.6964 67.8669 56.6934L12.4315 2.10027C11.7552 1.43433 10.9524 0.906098 10.0689 0.545733C9.18532 0.185368 8.23835 -7.22438e-05 7.28203 2.11127e-08ZM4.66647 7.1717C4.66617 6.662 4.8194 6.16368 5.10678 5.73979C5.39416 5.3159 5.80277 4.9855 6.28089 4.7904C6.75901 4.59531 7.28516 4.5443 7.79273 4.64382C8.3003 4.74334 8.76649 4.98892 9.13229 5.34948L10.9289 7.11885L8.49298 9.51324C8.37672 9.62016 8.28351 9.74903 8.21888 9.89218C8.15426 10.0353 8.11955 10.1898 8.11683 10.3465C8.11411 10.5031 8.14343 10.6587 8.20304 10.8039C8.26266 10.9491 8.35134 11.0811 8.46382 11.1918C8.5763 11.3026 8.71026 11.39 8.85774 11.4487C9.00521 11.5074 9.16318 11.5363 9.32222 11.5336C9.48126 11.5309 9.63813 11.4967 9.78348 11.4331C9.92883 11.3694 10.0597 11.2776 10.1682 11.1631L12.6018 8.76873L17.3406 13.4334L15.4927 15.258C15.3764 15.3649 15.2832 15.4937 15.2186 15.6369C15.154 15.78 15.1193 15.9345 15.1165 16.0912C15.1138 16.2478 15.1431 16.4034 15.2028 16.5486C15.2624 16.6938 15.3511 16.8258 15.4635 16.9366C15.576 17.0473 15.71 17.1347 15.8574 17.1934C16.0049 17.2521 16.1629 17.281 16.3219 17.2783C16.481 17.2756 16.6378 17.2414 16.7832 17.1778C16.9285 17.1141 17.0594 17.0223 17.168 16.9078L19.0182 15.0879L23.7593 19.7526L21.3258 22.1516C21.2095 22.2585 21.1163 22.3874 21.0517 22.5305C20.9871 22.6737 20.9524 22.8282 20.9496 22.9848C20.9469 23.1415 20.9762 23.297 21.0358 23.4423C21.0955 23.5875 21.1841 23.7194 21.2966 23.8302C21.4091 23.941 21.5431 24.0283 21.6905 24.087C21.838 24.1457 21.996 24.1746 22.155 24.1719C22.3141 24.1693 22.4709 24.1351 22.6163 24.0714C22.7616 24.0078 22.8925 23.916 23.001 23.8015L25.4346 21.4048L30.1757 26.0741L28.3255 27.8963C28.2092 28.0032 28.116 28.1321 28.0514 28.2753C27.9868 28.4184 27.9521 28.5729 27.9493 28.7295C27.9466 28.8862 27.9759 29.0417 28.0356 29.187C28.0952 29.3322 28.1839 29.4641 28.2963 29.5749C28.4088 29.6857 28.5428 29.773 28.6902 29.8317C28.8377 29.8905 28.9957 29.9193 29.1547 29.9167C29.3138 29.914 29.4706 29.8798 29.616 29.8161C29.7613 29.7525 29.8922 29.6607 30.0008 29.5462L31.851 27.724L36.5898 32.3933L34.1586 34.79C34.0423 34.8969 33.9491 35.0258 33.8845 35.1689C33.8199 35.3121 33.7852 35.4665 33.7824 35.6232C33.7797 35.7798 33.809 35.9354 33.8686 36.0806C33.9283 36.2259 34.0169 36.3578 34.1294 36.4686C34.2419 36.5793 34.3759 36.6667 34.5233 36.7254C34.6708 36.7841 34.8288 36.813 34.9878 36.8103C35.1469 36.8076 35.3037 36.7734 35.4491 36.7098C35.5944 36.6462 35.7253 36.5544 35.8338 36.4399L38.2674 34.0432L43.0062 38.7125L41.1583 40.5347C41.042 40.6416 40.9488 40.7705 40.8842 40.9136C40.8196 41.0568 40.7849 41.2113 40.7821 41.3679C40.7794 41.5245 40.8087 41.6801 40.8684 41.8253C40.928 41.9706 41.0167 42.1025 41.1291 42.2133C41.2416 42.3241 41.3756 42.4114 41.523 42.4701C41.6705 42.5288 41.8285 42.5577 41.9875 42.555C42.1466 42.5523 42.3034 42.5182 42.4488 42.4545C42.5941 42.3909 42.725 42.2991 42.8336 42.1846L44.6838 40.3623L49.4226 45.0316L46.9914 47.4283C46.8751 47.5353 46.7819 47.6641 46.7173 47.8073C46.6527 47.9504 46.618 48.1049 46.6152 48.2615C46.6125 48.4182 46.6418 48.5738 46.7015 48.719C46.7611 48.8642 46.8498 48.9962 46.9622 49.1069C47.0747 49.2177 47.2087 49.3051 47.3561 49.3638C47.5036 49.4225 47.6616 49.4514 47.8206 49.4487C47.9797 49.446 48.1365 49.4118 48.2819 49.3482C48.4272 49.2845 48.5581 49.1927 48.6666 49.0782L51.1002 46.6815L55.839 51.3508L53.9911 53.173C53.8748 53.28 53.7816 53.4088 53.717 53.552C53.6524 53.6951 53.6177 53.8496 53.6149 54.0063C53.6122 54.1629 53.6415 54.3185 53.7012 54.4637C53.7608 54.6089 53.8495 54.7409 53.9619 54.8517C54.0744 54.9624 54.2084 55.0498 54.3559 55.1085C54.5033 55.1672 54.6613 55.1961 54.8203 55.1934C54.9794 55.1907 55.1362 55.1565 55.2816 55.0929C55.4269 55.0292 55.5578 54.9374 55.6664 54.8229L57.5166 53.0007L62.2554 57.67L59.8242 60.0667C59.7079 60.1736 59.6147 60.3025 59.5501 60.4456C59.4855 60.5888 59.4508 60.7433 59.448 60.8999C59.4453 61.0565 59.4746 61.2121 59.5343 61.3574C59.5939 61.5026 59.6826 61.6345 59.795 61.7453C59.9075 61.8561 60.0415 61.9434 60.1889 62.0021C60.3364 62.0608 60.4944 62.0897 60.6534 62.087C60.8125 62.0844 60.9693 62.0502 61.1147 61.9865C61.26 61.9229 61.3909 61.8311 61.4995 61.7166L63.933 59.3199L64.563 59.9403C64.9298 60.3003 65.1798 60.7594 65.2814 61.2595C65.3829 61.7596 65.3315 62.2781 65.1336 62.7493C64.9357 63.2206 64.6003 63.6234 64.1697 63.9067C63.7391 64.19 63.2329 64.3411 62.7151 64.3408H7.77668C6.9518 64.3408 6.16071 64.0181 5.57743 63.4436C4.99415 62.8692 4.66647 62.0901 4.66647 61.2777V7.1717Z" fill="#BBC274"/>
</svg>
