<svg width="74" height="74" viewBox="0 0 74 74" fill="none" xmlns="http://www.w3.org/2000/svg">
<path fill-rule="evenodd" clip-rule="evenodd" d="M38.3215 39.6428V52.8571C42.9716 52.4396 44.9286 49.835 44.9286 46.3953C44.9286 43.0825 43.4063 41.1228 38.3215 39.6428ZM34.3572 33.0357V21.1428C30.0321 21.6912 27.75 24.2218 27.75 26.9968C27.75 29.7718 29.5525 31.816 34.3572 33.0357ZM38.11 34.0096L39.5266 34.3756C47.286 36.2375 51.5357 39.5332 51.5357 46.0333C51.5357 53.5099 45.6342 57.7517 38.11 58.3014V63.4286H34.7761V58.3014C27.2809 57.7213 21.3503 53.3579 21.1429 46.0333H27.2505C27.7817 49.6038 30.0255 52.2281 34.7761 52.7461V39.4433L33.5656 39.1381C26.0705 37.3369 22.0282 33.8576 22.0282 27.6628C22.0282 20.827 27.3404 16.3104 34.7761 15.7303V10.5714H38.11V15.7289C45.4862 16.3394 50.8275 20.9169 51.064 27.8451H44.926C44.5427 23.9998 41.8867 21.7718 38.11 21.2829V34.0096Z" fill="#BBC274"/>
</svg>
