<svg width="473" height="28" viewBox="0 0 473 28" fill="none" xmlns="http://www.w3.org/2000/svg">
<path d="M5 5C28.1581 5 28.1581 23 51.3163 23C74.4744 23 74.4744 5 97.6326 5C120.791 5 120.791 23 143.895 23C167.053 23 167.053 5 190.157 5C213.315 5 213.315 23 236.419 23C259.577 23 259.577 5 282.734 5C305.893 5 305.893 23 329.051 23C352.208 23 352.208 5 375.367 5C398.526 5 398.526 23 421.684 23C444.841 23 444.841 5 468 5" stroke="#BBC274" stroke-width="9" stroke-miterlimit="10" stroke-linecap="round"/>
</svg>
