<svg width="70" height="70" viewBox="0 0 70 70" fill="none" xmlns="http://www.w3.org/2000/svg">
<g clip-path="url(#clip0_39_135)">
<path d="M15.8606 5L12.3909 8.43662L17.5536 13.5549L21.0184 10.1183L15.8606 5ZM61.1419 5L55.9792 10.1183L59.4464 13.5549L64.6066 8.43906L61.1419 5ZM38.5 6.52521C37.6868 6.53499 36.8637 6.58143 36.0357 6.68165C36.0111 6.68165 35.9864 6.67676 35.9618 6.68165C25.9666 7.81822 18.0119 15.828 16.6295 25.6979C15.5255 33.6417 18.8276 40.845 24.3304 45.4841C26.5813 47.3895 28.1038 50.0042 28.6429 52.8902V67.5557H34.2614C35.119 69.015 36.6838 70 38.5 70C40.3162 70 41.881 69.015 42.7386 67.5557H48.3571V57.7787H48.5888V54.875C48.5888 51.2917 50.4666 47.6791 53.5174 44.8706C57.5982 40.8181 60.6786 35.0619 60.6786 28.4502C60.6786 16.3755 50.6588 6.41278 38.5 6.52521ZM38.5 11.4137C48.0245 11.2817 55.75 19.0153 55.75 28.4502C55.75 33.5684 53.3596 38.0756 50.0501 41.3558L50.129 41.434C46.8401 44.4422 44.7134 48.495 44.1161 52.8927H33.3373C32.7952 48.7032 30.9839 44.6482 27.561 41.7396C23.2066 38.0732 20.6118 32.5492 21.4792 26.3114C22.5561 18.612 28.8548 12.4207 36.5729 11.5726C37.2102 11.4845 37.8519 11.4322 38.4951 11.4162L38.5 11.4137ZM4 28.4502V33.3387H11.3929V28.4502H4ZM65.6071 28.4502V33.3387H73V28.4502H65.6071ZM17.5536 48.2339L12.3934 53.3498L15.8606 56.7888L21.0159 51.6705L17.5536 48.2339ZM59.4464 48.2339L55.9816 51.6705L61.1394 56.7888L64.6066 53.3498L59.4464 48.2339ZM33.5714 57.7812H43.4286V62.6697H33.5714V57.7812Z" fill="#BBC274"/>
</g>
<defs>
<clipPath id="clip0_39_135">
<rect width="70" height="70" fill="white"/>
</clipPath>
</defs>
</svg>
