<svg width="73" height="69" viewBox="0 0 73 69" fill="none" xmlns="http://www.w3.org/2000/svg">
<path d="M2.50288 62.0872L6.99889 66.5819C9.47307 69 12.2901 68.8006 14.7943 66.0409L44.5809 33.6093C45.8036 34.4632 46.9403 34.4345 48.3351 34.1503L51.379 33.5246L53.3995 35.5452L53.2561 37.0521C53.058 38.6164 53.5129 39.8117 54.9638 41.2626L57.3533 43.6234C58.8041 45.1029 60.7386 45.1877 62.1321 43.7942L71.6065 34.3211C73 32.9263 72.9153 31.0205 71.4631 29.5409L69.0737 27.1515C67.6241 25.7006 66.4 25.1883 64.8631 25.4164L63.3275 25.5859L61.393 23.6527L62.2469 20.3233C62.6445 18.6743 62.2182 17.3369 60.4258 15.5731L53.3995 8.57425C43.0713 -1.69528 29.844 -1.38243 20.7972 7.74909C19.5445 9.00052 19.4311 10.7082 20.2275 11.9596C20.8819 13.0416 22.2754 13.6947 24.1813 13.2111C28.5913 12.103 33.0012 12.4433 37.3252 15.3737L35.5041 19.9831C34.821 21.6895 34.8784 23.083 35.5615 24.3631L3.04386 54.2931C0.312876 56.822 1.88351e-05 59.5817 2.50418 62.0859M25.3206 8.88711C33.0873 3.08231 42.7598 4.02088 49.7586 11.0198L57.4106 18.6157C58.0937 19.2987 58.1797 19.8384 57.9803 20.6923L56.8996 25.2443L61.4791 29.8251L64.2687 29.5683C65.0926 29.4835 65.3481 29.5396 66.0311 30.194L67.8235 32.0151L59.83 40.0373L58.009 38.2175C57.3546 37.5631 57.2972 37.3063 57.3832 36.4811L57.6387 33.6654L53.088 29.1133L48.3651 30.0232C47.54 30.194 47.1137 30.194 46.402 29.4835L40.0848 23.1404C39.4018 22.4573 39.3157 22.0584 39.686 21.1485L42.4756 14.4912C37.8088 10.0251 31.6351 7.54965 25.6895 9.45677C25.434 9.5415 25.2632 9.48415 25.1772 9.37074C25.0925 9.22865 25.0925 9.08656 25.3206 8.88842M6.20241 60.038C4.75154 58.5871 5.26384 57.7046 6.22979 56.822L38.179 27.3483L41.7352 30.9331L12.1754 62.7715C11.2929 63.7388 10.1835 64.023 8.98814 62.8563L6.20241 60.038Z" fill="#BBC274"/>
</svg>
