<svg width="523" height="401" viewBox="0 0 523 401" fill="none" xmlns="http://www.w3.org/2000/svg">
<path fill-rule="evenodd" clip-rule="evenodd" d="M200.627 55.5388C188.596 52.6812 161.462 56.5114 133.88 84.8007C45.7794 175.238 -13.4456 301.745 -32.6544 346.769C-34.1446 350.261 -36.4271 353.6 -39.3714 356.595C-42.3158 359.591 -45.8644 362.184 -49.8147 364.228C-53.7649 366.271 -58.0395 367.724 -62.3942 368.504C-66.749 369.284 -71.0987 369.376 -75.195 368.774C-79.2913 368.172 -83.054 366.888 -86.2682 364.996C-89.4824 363.104 -92.0852 360.64 -93.928 357.745C-95.7708 354.85 -96.8174 351.581 -97.0082 348.125C-97.1991 344.669 -96.5303 341.093 -95.04 337.601C-75.5289 291.951 -12.7667 156.243 84.7159 56.1841C126.912 12.8964 184.407 -7.04932 229.089 3.44019C251.376 8.66822 268.831 21.5517 276.092 40.7898C283.294 59.8661 279.609 82.7576 266.372 106.77C224.965 181.964 170.948 283.146 150.039 330.522C147.296 336.749 148.283 340.356 149.404 342.223C150.663 344.333 153.025 345.891 156.269 346.426C160.705 347.004 165.556 346.104 169.811 343.914C175.576 341.172 184.037 335.233 192.545 323.103C199.703 312.828 207.078 301.959 214.692 290.819C238.107 256.452 263.388 219.268 290.687 187.444C319.077 154.374 358.813 133.491 395.883 136.56C414.396 138.102 429.839 145.77 438.881 158.4C447.833 170.916 449.497 186.77 445.149 203.51C440.519 221.457 435.693 234.918 431.38 247.014L431.057 247.978C426.807 259.301 423.161 270.685 420.129 282.094C419.471 284.671 419.48 287.235 420.155 289.616C420.83 291.998 422.155 294.143 424.043 295.909C425.78 297.477 427.105 298.056 427.802 298.241C431.807 297.027 434.943 295.029 439.19 289.867C445.123 282.579 450.809 271.852 458.89 254.476C462.159 247.466 468.541 241.313 476.632 237.372C484.724 233.431 493.862 232.025 502.036 233.462C510.211 234.899 516.752 239.062 520.221 245.035C523.69 251.009 523.803 258.303 520.534 265.313C512.824 281.855 504.305 299.356 492.501 313.837C479.409 329.819 461.364 343.248 435.867 349.822C407.911 357.078 384.417 347.772 371.061 335.515C363.447 328.506 358.09 319.963 355.35 310.459C352.609 300.955 352.549 290.71 355.172 280.413C358.94 265.65 363.245 253.667 367.334 242.278L367.824 240.848C372.049 229.042 376.213 217.331 380.273 201.652C381.969 195.075 380.521 192.189 379.921 191.344C379.729 191.019 379.435 190.75 379.062 190.561C378.69 190.372 378.25 190.267 377.78 190.256C375.626 190.055 361.348 191.22 342.962 212.676C318.359 241.305 296.16 273.975 273.311 307.509C265.297 319.274 257.191 331.183 248.879 343.058C219.603 384.907 173.04 406.166 132.282 399.38C92.6101 392.784 70.4826 360.336 87.9254 320.776C110.015 270.688 165.354 167.183 206.508 92.4849C214.371 78.2025 214.056 69.3133 212.265 64.5686C211.443 62.3259 209.977 60.3513 207.972 58.7871C205.967 57.2229 203.473 56.1082 200.67 55.5231L200.627 55.5388ZM428.335 298.376L428.184 298.358C428.269 298.326 428.323 298.343 428.335 298.376Z" fill="#BBC274"/>
</svg>
