<svg width="643" height="691" viewBox="0 0 643 691" fill="none" xmlns="http://www.w3.org/2000/svg">
<g clip-path="url(#clip0_39_190)">
<path fill-rule="evenodd" clip-rule="evenodd" d="M342.127 167.602C330.586 167.316 307.443 176.412 290.772 208.792C237.544 312.289 220.222 444.172 215.726 490.733C215.377 494.344 214.278 497.97 212.492 501.403C210.705 504.837 208.266 508.011 205.315 510.744C202.363 513.477 198.956 515.716 195.288 517.332C191.62 518.949 187.763 519.912 183.938 520.166C180.113 520.42 176.394 519.961 172.993 518.814C169.592 517.667 166.577 515.855 164.119 513.481C161.661 511.107 159.808 508.219 158.667 504.98C157.526 501.741 157.118 498.215 157.467 494.604C162.057 447.389 179.95 306.068 238.85 191.559C264.351 142.014 310.066 111.522 352.895 112.47C374.256 112.938 393.456 121.639 405.341 138.419C417.129 155.057 420.271 177.505 415.202 202.939C399.368 282.579 379.581 389.399 374.229 438.533C373.529 444.99 375.423 448.211 376.949 449.756C378.665 451.503 381.211 452.505 384.258 452.359C388.379 452.013 392.456 450.183 395.638 447.25C400.014 443.488 405.897 436.153 410.083 422.937C413.586 411.753 417.115 399.962 420.782 387.865C432.026 350.563 444.145 310.212 459.57 274.538C475.619 237.463 505.219 209.659 539.169 205.103C556.127 202.836 572.065 206.998 583.684 217.152C595.19 227.217 601.13 241.915 601.952 258.664C602.861 276.614 602.335 290.349 601.884 302.687L601.867 303.667C601.254 315.26 601.198 326.788 601.697 338.217C601.834 340.793 602.562 343.222 603.834 345.345C605.105 347.467 606.89 349.234 609.072 350.529C611.062 351.665 612.408 351.947 613.082 351.982C616.315 350.025 618.553 347.499 620.894 341.749C624.142 333.643 626.204 322.327 628.535 304.223C629.483 296.917 633.451 289.798 639.566 284.432C645.681 279.065 653.442 275.891 661.142 275.607C668.842 275.324 675.85 277.954 680.625 282.919C685.399 287.884 687.549 294.778 686.601 302.084C684.367 319.322 681.68 337.632 675.211 353.74C668.017 371.532 655.683 387.899 634.771 399.268C611.858 411.778 588.273 407.687 572.909 398.753C564.144 393.641 556.962 386.619 551.846 378.16C546.73 369.7 543.798 359.998 543.246 349.705C542.462 334.948 542.938 322.719 543.388 311.096L543.424 309.642C543.878 297.595 544.304 285.653 543.523 269.968C543.189 263.39 541.086 260.945 540.313 260.264C540.05 259.995 539.712 259.8 539.327 259.695C538.941 259.591 538.519 259.58 538.096 259.664C536.117 259.907 523.7 263.888 513.318 287.936C499.401 320.036 488.765 355.486 477.792 391.885C473.944 404.655 470.055 417.58 465.972 430.513C451.598 476.091 416.01 505.627 377.724 507.402C340.461 509.137 311.595 482.826 316.05 441.801C321.694 389.858 342.009 280.568 357.757 201.451C360.762 186.324 357.984 177.959 355.052 173.821C353.688 171.859 351.825 170.282 349.596 169.203C347.367 168.124 344.827 167.569 342.161 167.579L342.127 167.602ZM613.596 352.003L613.456 352.016C613.523 351.97 613.576 351.975 613.596 352.003Z" fill="#BBC274"/>
</g>
<defs>
<clipPath id="clip0_39_190">
<rect width="574" height="483" fill="white" transform="translate(0 294.04) rotate(-34.8548)"/>
</clipPath>
</defs>
</svg>
