<svg width="51" height="51" viewBox="0 0 51 51" fill="none" xmlns="http://www.w3.org/2000/svg">
<path d="M42.5 21.25C42.5 34 25.5 46.75 25.5 46.75C25.5 46.75 8.5 34 8.5 21.25C8.5 16.7413 10.2911 12.4173 13.4792 9.22918C16.6673 6.04107 20.9913 4.25 25.5 4.25C30.0087 4.25 34.3327 6.04107 37.5208 9.22918C40.7089 12.4173 42.5 16.7413 42.5 21.25Z" stroke="#2B2A28" stroke-width="4" stroke-linecap="round" stroke-linejoin="round"/>
<path d="M25.5 27.625C29.0208 27.625 31.875 24.7708 31.875 21.25C31.875 17.7292 29.0208 14.875 25.5 14.875C21.9792 14.875 19.125 17.7292 19.125 21.25C19.125 24.7708 21.9792 27.625 25.5 27.625Z" stroke="#2B2A28" stroke-width="4" stroke-linecap="round" stroke-linejoin="round"/>
</svg>
