<svg width="134" height="110" viewBox="0 0 134 110" fill="none" xmlns="http://www.w3.org/2000/svg">
<path d="M1.2642 92V77.4545H4.33949V83.8679H4.53125L9.76562 77.4545H13.4517L8.05398 83.9673L13.5156 92H9.83665L5.85227 86.0199L4.33949 87.8665V92H1.2642ZM24.0376 77.4545H27.1129V86.9006C27.1129 87.9612 26.8596 88.8892 26.353 89.6847C25.8511 90.4801 25.148 91.1004 24.2436 91.5455C23.3393 91.9858 22.2857 92.206 21.0831 92.206C19.8757 92.206 18.8198 91.9858 17.9155 91.5455C17.0111 91.1004 16.308 90.4801 15.8061 89.6847C15.3042 88.8892 15.0533 87.9612 15.0533 86.9006V77.4545H18.1286V86.6378C18.1286 87.1918 18.2493 87.6842 18.4908 88.1151C18.737 88.5459 19.0826 88.8845 19.5277 89.1307C19.9728 89.3769 20.4912 89.5 21.0831 89.5C21.6797 89.5 22.1982 89.3769 22.6385 89.1307C23.0836 88.8845 23.4268 88.5459 23.6683 88.1151C23.9145 87.6842 24.0376 87.1918 24.0376 86.6378V77.4545ZM29.6431 92V77.4545H35.467C36.5371 77.4545 37.4296 77.6132 38.1445 77.9304C38.8595 78.2476 39.3969 78.688 39.7567 79.2514C40.1166 79.8101 40.2965 80.4541 40.2965 81.1832C40.2965 81.7514 40.1829 82.2509 39.9556 82.6818C39.7283 83.108 39.4158 83.4583 39.0181 83.733C38.6251 84.0028 38.1753 84.1946 37.6687 84.3082V84.4503C38.2227 84.474 38.7411 84.6302 39.2241 84.919C39.7118 85.2079 40.1071 85.6127 40.4102 86.1335C40.7132 86.6496 40.8647 87.2652 40.8647 87.9801C40.8647 88.7519 40.6729 89.4408 40.2894 90.0469C39.9106 90.6482 39.3496 91.1241 38.6062 91.4744C37.8628 91.8248 36.9466 92 35.8576 92H29.6431ZM32.7184 89.4858H35.2255C36.0825 89.4858 36.7075 89.3224 37.1005 88.9957C37.4935 88.6643 37.69 88.224 37.69 87.6747C37.69 87.2723 37.5929 86.9171 37.3988 86.6094C37.2047 86.3016 36.9277 86.0601 36.5678 85.8849C36.2127 85.7098 35.7889 85.6222 35.2965 85.6222H32.7184V89.4858ZM32.7184 83.5412H34.9982C35.4196 83.5412 35.7937 83.4678 36.1204 83.321C36.4518 83.1695 36.7122 82.9564 36.9016 82.6818C37.0958 82.4072 37.1928 82.0781 37.1928 81.6946C37.1928 81.169 37.0058 80.7453 36.6317 80.4233C36.2624 80.1013 35.7369 79.9403 35.055 79.9403H32.7184V83.5412ZM45.3729 92H42.0774L47.0987 77.4545H51.0618L56.076 92H52.7805L49.1371 80.7784H49.0234L45.3729 92ZM45.1669 86.2827H52.951V88.6832H45.1669V86.2827ZM67.0845 77.4545H70.8771L74.8828 87.2273H75.0533L79.0589 77.4545H82.8516V92H79.8686V82.5327H79.7479L75.9837 91.929H73.9524L70.1882 82.4972H70.0675V92H67.0845V77.4545ZM85.3853 92V77.4545H95.1864V79.9901H88.4606V83.456H94.6822V85.9915H88.4606V89.4645H95.2148V92H85.3853ZM97.6314 92V77.4545H103.455C104.525 77.4545 105.418 77.6132 106.133 77.9304C106.848 78.2476 107.385 78.688 107.745 79.2514C108.105 79.8101 108.285 80.4541 108.285 81.1832C108.285 81.7514 108.171 82.2509 107.944 82.6818C107.717 83.108 107.404 83.4583 107.006 83.733C106.613 84.0028 106.164 84.1946 105.657 84.3082V84.4503C106.211 84.474 106.729 84.6302 107.212 84.919C107.7 85.2079 108.095 85.6127 108.398 86.1335C108.701 86.6496 108.853 87.2652 108.853 87.9801C108.853 88.7519 108.661 89.4408 108.278 90.0469C107.899 90.6482 107.338 91.1241 106.594 91.4744C105.851 91.8248 104.935 92 103.846 92H97.6314ZM100.707 89.4858H103.214C104.071 89.4858 104.696 89.3224 105.089 88.9957C105.482 88.6643 105.678 88.224 105.678 87.6747C105.678 87.2723 105.581 86.9171 105.387 86.6094C105.193 86.3016 104.916 86.0601 104.556 85.8849C104.201 85.7098 103.777 85.6222 103.285 85.6222H100.707V89.4858ZM100.707 83.5412H102.987C103.408 83.5412 103.782 83.4678 104.109 83.321C104.44 83.1695 104.701 82.9564 104.89 82.6818C105.084 82.4072 105.181 82.0781 105.181 81.6946C105.181 81.169 104.994 80.7453 104.62 80.4233C104.251 80.1013 103.725 79.9403 103.043 79.9403H100.707V83.5412ZM110.854 92V77.4545H113.929V89.4645H120.165V92H110.854ZM122.202 92V77.4545H132.003V79.9901H125.277V83.456H131.499V85.9915H125.277V89.4645H132.031V92H122.202Z" fill="#2B2A28"/>
<path d="M0.664773 107V105.905L5.01989 99.794H0.65625V98.2727H7.33807V99.3679L2.97869 105.479H7.34659V107H0.664773ZM9.24243 107V98.2727H12.6856C13.3447 98.2727 13.9072 98.3906 14.3731 98.6264C14.8419 98.8594 15.1984 99.1903 15.4427 99.6193C15.6899 100.045 15.8135 100.547 15.8135 101.124C15.8135 101.703 15.6885 102.202 15.4385 102.619C15.1885 103.034 14.8262 103.352 14.3518 103.574C13.8802 103.795 13.3092 103.906 12.6387 103.906H10.3333V102.423H12.3404C12.6927 102.423 12.9853 102.375 13.2183 102.278C13.4512 102.182 13.6245 102.037 13.7382 101.844C13.8546 101.651 13.9129 101.411 13.9129 101.124C13.9129 100.834 13.8546 100.589 13.7382 100.391C13.6245 100.192 13.4498 100.041 13.214 99.9389C12.9811 99.8338 12.687 99.7812 12.3319 99.7812H11.0876V107H9.24243ZM13.9555 103.028L16.1245 107H14.0876L11.9654 103.028H13.9555ZM25.6173 102.636C25.6173 103.588 25.4369 104.398 25.0761 105.065C24.7182 105.733 24.2295 106.243 23.6102 106.595C22.9937 106.945 22.3006 107.119 21.5307 107.119C20.7551 107.119 20.0591 106.943 19.4426 106.591C18.8261 106.239 18.3389 105.729 17.981 105.061C17.623 104.393 17.444 103.585 17.444 102.636C17.444 101.685 17.623 100.875 17.981 100.207C18.3389 99.5398 18.8261 99.0312 19.4426 98.6818C20.0591 98.3295 20.7551 98.1534 21.5307 98.1534C22.3006 98.1534 22.9937 98.3295 23.6102 98.6818C24.2295 99.0312 24.7182 99.5398 25.0761 100.207C25.4369 100.875 25.6173 101.685 25.6173 102.636ZM23.7466 102.636C23.7466 102.02 23.6542 101.5 23.4696 101.077C23.2878 100.653 23.0307 100.332 22.6983 100.114C22.3659 99.8949 21.9767 99.7855 21.5307 99.7855C21.0846 99.7855 20.6954 99.8949 20.3631 100.114C20.0307 100.332 19.7721 100.653 19.5875 101.077C19.4057 101.5 19.3148 102.02 19.3148 102.636C19.3148 103.253 19.4057 103.773 19.5875 104.196C19.7721 104.619 20.0307 104.94 20.3631 105.159C20.6954 105.378 21.0846 105.487 21.5307 105.487C21.9767 105.487 22.3659 105.378 22.6983 105.159C23.0307 104.94 23.2878 104.619 23.4696 104.196C23.6542 103.773 23.7466 103.253 23.7466 102.636ZM27.4641 107V98.2727H30.9585C31.6005 98.2727 32.136 98.3679 32.565 98.5582C32.994 98.7486 33.3164 99.0128 33.5323 99.3509C33.7482 99.6861 33.8562 100.072 33.8562 100.51C33.8562 100.851 33.788 101.151 33.6516 101.409C33.5153 101.665 33.3278 101.875 33.0891 102.04C32.8534 102.202 32.5835 102.317 32.2795 102.385V102.47C32.6119 102.484 32.923 102.578 33.2127 102.751C33.5053 102.925 33.7426 103.168 33.9244 103.48C34.1062 103.79 34.1971 104.159 34.1971 104.588C34.1971 105.051 34.082 105.464 33.8519 105.828C33.6247 106.189 33.288 106.474 32.842 106.685C32.396 106.895 31.8463 107 31.1928 107H27.4641ZM29.3093 105.491H30.8136C31.3278 105.491 31.7028 105.393 31.9386 105.197C32.1744 104.999 32.2923 104.734 32.2923 104.405C32.2923 104.163 32.234 103.95 32.1176 103.766C32.0011 103.581 31.8349 103.436 31.619 103.331C31.4059 103.226 31.1516 103.173 30.8562 103.173H29.3093V105.491ZM29.3093 101.925H30.6772C30.9301 101.925 31.1545 101.881 31.3505 101.793C31.5494 101.702 31.7056 101.574 31.8193 101.409C31.9357 101.244 31.994 101.047 31.994 100.817C31.994 100.501 31.8818 100.247 31.6573 100.054C31.4357 99.8608 31.1204 99.7642 30.7113 99.7642H29.3093V101.925ZM37.7229 98.2727V107H35.8777V98.2727H37.7229ZM47.4213 101.328H45.5548C45.5207 101.087 45.4511 100.872 45.346 100.685C45.2409 100.494 45.106 100.332 44.9412 100.199C44.7764 100.065 44.5861 99.9631 44.3702 99.892C44.1571 99.821 43.9256 99.7855 43.6756 99.7855C43.2239 99.7855 42.8304 99.8977 42.4952 100.122C42.1599 100.344 41.9 100.668 41.7153 101.094C41.5307 101.517 41.4384 102.031 41.4384 102.636C41.4384 103.259 41.5307 103.781 41.7153 104.205C41.9028 104.628 42.1642 104.947 42.4994 105.163C42.8347 105.379 43.2224 105.487 43.6628 105.487C43.9099 105.487 44.1386 105.455 44.3489 105.389C44.5619 105.324 44.7509 105.229 44.9156 105.104C45.0804 104.976 45.2168 104.821 45.3247 104.639C45.4355 104.457 45.5122 104.25 45.5548 104.017L47.4213 104.026C47.373 104.426 47.2523 104.812 47.0591 105.185C46.8688 105.554 46.6116 105.885 46.2878 106.178C45.9668 106.467 45.5832 106.697 45.1372 106.868C44.694 107.036 44.1926 107.119 43.633 107.119C42.8545 107.119 42.1585 106.943 41.5449 106.591C40.9341 106.239 40.4511 105.729 40.096 105.061C39.7438 104.393 39.5676 103.585 39.5676 102.636C39.5676 101.685 39.7466 100.875 40.1045 100.207C40.4625 99.5398 40.9483 99.0312 41.5619 98.6818C42.1756 98.3295 42.8659 98.1534 43.633 98.1534C44.1386 98.1534 44.6074 98.2244 45.0392 98.3665C45.4739 98.5085 45.8588 98.7159 46.194 98.9886C46.5293 99.2585 46.802 99.5895 47.0122 99.9815C47.2253 100.374 47.3616 100.822 47.4213 101.328ZM42.981 97.429L43.8844 95.4901H45.5634L44.2636 97.429H42.981ZM60.1821 101.328H58.3156C58.2815 101.087 58.2119 100.872 58.1068 100.685C58.0017 100.494 57.8667 100.332 57.702 100.199C57.5372 100.065 57.3469 99.9631 57.131 99.892C56.9179 99.821 56.6864 99.7855 56.4364 99.7855C55.9846 99.7855 55.5912 99.8977 55.256 100.122C54.9207 100.344 54.6608 100.668 54.4761 101.094C54.2915 101.517 54.1991 102.031 54.1991 102.636C54.1991 103.259 54.2915 103.781 54.4761 104.205C54.6636 104.628 54.925 104.947 55.2602 105.163C55.5954 105.379 55.9832 105.487 56.4236 105.487C56.6707 105.487 56.8994 105.455 57.1096 105.389C57.3227 105.324 57.5116 105.229 57.6764 105.104C57.8412 104.976 57.9775 104.821 58.0855 104.639C58.1963 104.457 58.273 104.25 58.3156 104.017L60.1821 104.026C60.1338 104.426 60.0131 104.812 59.8199 105.185C59.6295 105.554 59.3724 105.885 59.0486 106.178C58.7275 106.467 58.344 106.697 57.898 106.868C57.4548 107.036 56.9534 107.119 56.3937 107.119C55.6153 107.119 54.9193 106.943 54.3057 106.591C53.6949 106.239 53.2119 105.729 52.8568 105.061C52.5045 104.393 52.3284 103.585 52.3284 102.636C52.3284 101.685 52.5074 100.875 52.8653 100.207C53.2233 99.5398 53.7091 99.0312 54.3227 98.6818C54.9364 98.3295 55.6267 98.1534 56.3937 98.1534C56.8994 98.1534 57.3682 98.2244 57.8 98.3665C58.2346 98.5085 58.6196 98.7159 58.9548 98.9886C59.29 99.2585 59.5628 99.5895 59.773 99.9815C59.9861 100.374 60.1224 100.822 60.1821 101.328ZM63.8304 98.2727V107H61.9852V98.2727H63.8304ZM69.0859 107V98.2727H70.931V102.121H71.0461L74.1867 98.2727H76.3984L73.1597 102.18L76.4367 107H74.2293L71.8387 103.412L70.931 104.52V107H69.0859ZM83.2299 98.2727H85.0751V103.94C85.0751 104.577 84.9231 105.134 84.6191 105.611C84.318 106.088 83.8961 106.46 83.3535 106.727C82.8109 106.991 82.1788 107.124 81.4572 107.124C80.7328 107.124 80.0992 106.991 79.5566 106.727C79.014 106.46 78.5921 106.088 78.291 105.611C77.9899 105.134 77.8393 104.577 77.8393 103.94V98.2727H79.6845V103.783C79.6845 104.115 79.7569 104.411 79.9018 104.669C80.0495 104.928 80.2569 105.131 80.524 105.278C80.791 105.426 81.1021 105.5 81.4572 105.5C81.8152 105.5 82.1262 105.426 82.3904 105.278C82.6575 105.131 82.8635 104.928 83.0083 104.669C83.1561 104.411 83.2299 104.115 83.2299 103.783V98.2727ZM94.7735 101.328H92.907C92.8729 101.087 92.8033 100.872 92.6982 100.685C92.5931 100.494 92.4582 100.332 92.2934 100.199C92.1286 100.065 91.9383 99.9631 91.7224 99.892C91.5093 99.821 91.2778 99.7855 91.0278 99.7855C90.5761 99.7855 90.1826 99.8977 89.8474 100.122C89.5121 100.344 89.2522 100.668 89.0675 101.094C88.8829 101.517 88.7905 102.031 88.7905 102.636C88.7905 103.259 88.8829 103.781 89.0675 104.205C89.255 104.628 89.5164 104.947 89.8516 105.163C90.1868 105.379 90.5746 105.487 91.015 105.487C91.2621 105.487 91.4908 105.455 91.7011 105.389C91.9141 105.324 92.103 105.229 92.2678 105.104C92.4326 104.976 92.569 104.821 92.6769 104.639C92.7877 104.457 92.8644 104.25 92.907 104.017L94.7735 104.026C94.7252 104.426 94.6045 104.812 94.4113 105.185C94.2209 105.554 93.9638 105.885 93.64 106.178C93.319 106.467 92.9354 106.697 92.4894 106.868C92.0462 107.036 91.5448 107.119 90.9851 107.119C90.2067 107.119 89.5107 106.943 88.8971 106.591C88.2863 106.239 87.8033 105.729 87.4482 105.061C87.0959 104.393 86.9198 103.585 86.9198 102.636C86.9198 101.685 87.0988 100.875 87.4567 100.207C87.8147 99.5398 88.3005 99.0312 88.9141 98.6818C89.5278 98.3295 90.2181 98.1534 90.9851 98.1534C91.4908 98.1534 91.9596 98.2244 92.3914 98.3665C92.8261 98.5085 93.211 98.7159 93.5462 98.9886C93.8815 99.2585 94.1542 99.5895 94.3644 99.9815C94.5775 100.374 94.7138 100.822 94.7735 101.328ZM96.5766 107V98.2727H98.4218V101.874H102.168V98.2727H104.008V107H102.168V103.395H98.4218V107H96.5766ZM113.309 98.2727V107H111.716L107.919 101.507H107.855V107H106.01V98.2727H107.629L111.396 103.761H111.473V98.2727H113.309ZM117.159 98.2727V107H115.314V98.2727H117.159ZM119.157 107V98.2727H125.038V99.794H121.002V101.874H124.735V103.395H121.002V105.479H125.055V107H119.157ZM124.228 109.446C123.85 109.446 123.534 109.348 123.278 109.152C123.025 108.959 122.866 108.682 122.801 108.321C122.758 108.088 122.761 107.854 122.809 107.618C122.86 107.382 122.96 107.166 123.108 106.97C123.258 106.774 123.458 106.621 123.708 106.51L125.059 107C124.792 107.125 124.573 107.26 124.403 107.405C124.233 107.55 124.149 107.724 124.152 107.929C124.149 108.065 124.183 108.17 124.254 108.244C124.325 108.318 124.429 108.355 124.565 108.355C124.659 108.355 124.743 108.342 124.816 108.317C124.89 108.294 124.956 108.273 125.012 108.253L125.2 109.19C125.095 109.25 124.96 109.307 124.795 109.361C124.633 109.418 124.444 109.446 124.228 109.446ZM128.51 104.384V104.239C128.513 103.741 128.557 103.345 128.643 103.05C128.731 102.754 128.859 102.516 129.026 102.334C129.194 102.152 129.395 101.987 129.631 101.839C129.807 101.726 129.965 101.608 130.104 101.486C130.243 101.364 130.354 101.229 130.437 101.081C130.519 100.93 130.56 100.763 130.56 100.578C130.56 100.382 130.513 100.21 130.42 100.062C130.326 99.9148 130.199 99.8011 130.04 99.7216C129.884 99.642 129.711 99.6023 129.52 99.6023C129.336 99.6023 129.161 99.6435 128.996 99.7259C128.832 99.8054 128.697 99.9247 128.591 100.084C128.486 100.24 128.43 100.435 128.421 100.668H126.682C126.697 100.099 126.833 99.6307 127.091 99.2614C127.35 98.8892 127.692 98.6122 128.118 98.4304C128.545 98.2457 129.015 98.1534 129.529 98.1534C130.094 98.1534 130.594 98.2472 131.029 98.4347C131.464 98.6193 131.805 98.8878 132.052 99.2401C132.299 99.5923 132.422 100.017 132.422 100.514C132.422 100.847 132.367 101.142 132.256 101.401C132.148 101.656 131.996 101.884 131.8 102.082C131.604 102.278 131.373 102.456 131.106 102.615C130.881 102.749 130.697 102.888 130.552 103.033C130.41 103.178 130.303 103.345 130.232 103.536C130.164 103.726 130.128 103.96 130.126 104.239V104.384H128.51ZM129.354 107.111C129.07 107.111 128.827 107.011 128.626 106.812C128.427 106.611 128.329 106.369 128.332 106.088C128.329 105.81 128.427 105.571 128.626 105.372C128.827 105.173 129.07 105.074 129.354 105.074C129.624 105.074 129.861 105.173 130.066 105.372C130.27 105.571 130.374 105.81 130.377 106.088C130.374 106.276 130.324 106.447 130.228 106.604C130.134 106.757 130.01 106.881 129.857 106.974C129.704 107.065 129.536 107.111 129.354 107.111Z" fill="#2B2A28"/>
<rect x="39" y="43" width="2.5" height="15" rx="1" fill="#2B2A28"/>
<rect x="45" y="38" width="3" height="22" rx="1" fill="#2B2A28"/>
<rect x="51" y="32" width="4" height="29" rx="1" fill="#2B2A28"/>
<rect x="58" y="26" width="5" height="37" rx="1" fill="#2B2A28"/>
<rect x="66" y="19" width="5" height="46" rx="1.5" fill="#BBC274"/>
<rect x="75" y="9" width="7" height="57" rx="1.5" fill="#BBC274"/>
<rect x="86" width="8" height="69" rx="1.5" fill="#BBC274"/>
</svg>
