<svg width="56" height="56" viewBox="0 0 56 56" fill="none" xmlns="http://www.w3.org/2000/svg">
<path d="M47.25 7H19.25C18.7859 7 18.3408 7.18437 18.0126 7.51256C17.6844 7.84075 17.5 8.28587 17.5 8.75V17.5H8.75C8.28587 17.5 7.84075 17.6844 7.51256 18.0126C7.18437 18.3408 7 18.7859 7 19.25V47.25C7 47.7141 7.18437 48.1592 7.51256 48.4874C7.84075 48.8156 8.28587 49 8.75 49H36.75C37.2141 49 37.6593 48.8156 37.9874 48.4874C38.3156 48.1592 38.5 47.7141 38.5 47.25V38.5H47.25C47.7141 38.5 48.1592 38.3156 48.4874 37.9874C48.8156 37.6593 49 37.2141 49 36.75V8.75C49 8.28587 48.8156 7.84075 48.4874 7.51256C48.1592 7.18437 47.7141 7 47.25 7ZM35 45.5H10.5V21H35V45.5ZM45.5 35H38.5V19.25C38.5 18.7859 38.3156 18.3408 37.9874 18.0126C37.6593 17.6844 37.2141 17.5 36.75 17.5H21V10.5H45.5V35Z" fill="#2B2A28"/>
</svg>
