<svg width="45" height="45" viewBox="0 0 45 45" fill="none" xmlns="http://www.w3.org/2000/svg">
<path d="M41.25 31.7249V37.3499C41.2521 37.8721 41.1452 38.389 40.936 38.8675C40.7268 39.3459 40.4199 39.7754 40.0351 40.1284C39.6504 40.4815 39.1961 40.7502 38.7014 40.9175C38.2067 41.0848 37.6826 41.1469 37.1625 41.0999C31.3928 40.473 25.8506 38.5015 20.9812 35.3437C16.4509 32.4649 12.61 28.624 9.73125 24.0937C6.56246 19.2022 4.59045 13.6331 3.975 7.83744C3.92814 7.31894 3.98976 6.79636 4.15593 6.30298C4.32211 5.8096 4.58919 5.35623 4.94018 4.97173C5.29117 4.58722 5.71838 4.28002 6.1946 4.06967C6.67083 3.85931 7.18564 3.75043 7.70625 3.74994H13.3312C14.2412 3.74098 15.1234 4.06321 15.8133 4.65656C16.5032 5.24991 16.9539 6.0739 17.0812 6.97494C17.3187 8.77506 17.759 10.5426 18.3937 12.2437C18.646 12.9148 18.7006 13.6442 18.5511 14.3453C18.4015 15.0465 18.0541 15.6901 17.55 16.1999L15.1687 18.5812C17.8379 23.2753 21.7246 27.162 26.4187 29.8312L28.8 27.4499C29.3098 26.9458 29.9534 26.5984 30.6546 26.4489C31.3558 26.2993 32.0851 26.3539 32.7562 26.6062C34.4574 27.241 36.2249 27.6813 38.025 27.9187C38.9358 28.0472 39.7676 28.5059 40.3622 29.2077C40.9569 29.9095 41.2728 30.8054 41.25 31.7249Z" stroke="#2B2A28" stroke-width="4" stroke-linecap="round" stroke-linejoin="round"/>
</svg>
