<svg width="87" height="87" viewBox="0 0 87 87" fill="none" xmlns="http://www.w3.org/2000/svg">
<path d="M73.8509 17.88L53.0852 10.9695H52.843C52.6819 10.9533 52.5195 10.9533 52.3584 10.9695H50.8702L31.212 17.7073L11.5539 10.9695C11.0334 10.7981 10.4796 10.7526 9.93807 10.8367C9.39654 10.9208 8.88276 11.1321 8.43901 11.4532C7.99171 11.7711 7.6266 12.1908 7.37385 12.6774C7.12109 13.1641 6.98795 13.7038 6.98541 14.252V62.626C6.98354 63.3504 7.20974 64.0571 7.63206 64.6461C8.05437 65.2351 8.65144 65.6768 9.33885 65.9086L30.1045 72.8191C30.8017 73.0461 31.5531 73.0461 32.2503 72.8191L51.9777 66.2541L71.6359 72.9919C72.0034 73.0417 72.3759 73.0417 72.7434 72.9919C73.4671 73.0021 74.1734 72.771 74.7508 72.3354C75.1981 72.0175 75.5632 71.5978 75.8159 71.1112C76.0687 70.6245 76.2018 70.0848 76.2044 69.5366V21.1626C76.2062 20.4382 75.98 19.7315 75.5577 19.1425C75.1354 18.5535 74.5383 18.1118 73.8509 17.88ZM27.7511 64.7338L13.9073 60.1382V19.0548L27.7511 23.6504V64.7338ZM48.5168 60.1382L34.673 64.7338V23.6504L48.5168 19.0548V60.1382ZM69.2825 64.7338L55.4387 60.1382V19.0548L69.2825 23.6504V64.7338Z" fill="#BBC274"/>
</svg>
