<svg width="286" height="525" viewBox="0 0 286 525" fill="none" xmlns="http://www.w3.org/2000/svg">
<path d="M47.5406 350.265C57.383 313.532 67.531 287.944 77.9847 273.5C88.4383 259.056 106.152 244.963 131.126 231.222C152.844 219.543 169.864 208.92 182.186 199.351C194.507 189.782 202.727 177.277 206.846 161.835C211.828 143.242 210.147 126.266 201.803 110.907C193.459 95.5482 178.915 85.0893 158.169 79.5306C136.595 73.7497 118.323 76.3876 103.354 87.4442C88.3858 98.5008 76.6222 110.659 68.0635 123.919L10.7253 76.4766C27.3857 49.8338 50.4162 29.0292 79.8169 14.0629C109.218 -0.903438 141.897 -3.56921 177.854 6.06557C222.272 17.9674 252.881 40.3906 269.679 73.3353C286.478 106.28 289.89 141.334 279.914 178.497C273.838 201.172 264.099 219.345 250.696 233.019C237.293 246.692 218.122 261.113 193.183 276.284C166.743 292.043 149.817 304.889 142.404 314.821C134.991 324.752 127.694 343.085 120.513 369.818L47.5406 350.265ZM39.3308 523.042C25.3708 519.301 14.851 510.776 7.7714 497.467C0.691757 484.158 -0.849154 470.009 3.14867 455.021C7.1465 440.033 15.5528 428.56 28.3676 420.601C41.1824 412.641 54.5578 410.509 68.4936 414.205C82.4295 417.9 92.9553 426.436 100.071 439.814C107.187 453.191 108.722 467.328 104.676 482.225C100.63 497.122 92.2294 508.607 79.4749 516.68C66.7204 524.752 53.339 526.873 39.3308 523.042Z" fill="#BBC274"/>
</svg>
